<?xml version="1.0" encoding="UTF-8" standalone="no"?>
<!-- Created with Inkscape (http://www.inkscape.org/) -->

<svg
   xmlns:dc="http://purl.org/dc/elements/1.1/"
   xmlns:cc="http://creativecommons.org/ns#"
   xmlns:rdf="http://www.w3.org/1999/02/22-rdf-syntax-ns#"
   xmlns:svg="http://www.w3.org/2000/svg"
   xmlns="http://www.w3.org/2000/svg"
   xmlns:sodipodi="http://sodipodi.sourceforge.net/DTD/sodipodi-0.dtd"
   xmlns:inkscape="http://www.inkscape.org/namespaces/inkscape"
   width="156.56335"
   height="256.31818"
   id="svg78566"
   version="1.1"
   inkscape:version="0.48.4 r9939"
   sodipodi:docname="Nytt dokument 31">
  <defs
     id="defs78568" />
  <sodipodi:namedview
     id="base"
     pagecolor="#ffffff"
     bordercolor="#666666"
     borderopacity="1.0"
     inkscape:pageopacity="0.0"
     inkscape:pageshadow="2"
     inkscape:zoom="0.35"
     inkscape:cx="-166.71832"
     inkscape:cy="153.87337"
     inkscape:document-units="px"
     inkscape:current-layer="layer1"
     showgrid="false"
     fit-margin-top="0"
     fit-margin-left="0"
     fit-margin-right="0"
     fit-margin-bottom="0"
     inkscape:window-width="463"
     inkscape:window-height="423"
     inkscape:window-x="52"
     inkscape:window-y="52"
     inkscape:window-maximized="0" />
  <metadata
     id="metadata78571">
    <rdf:RDF>
      <cc:Work
         rdf:about="">
        <dc:format>image/svg+xml</dc:format>
        <dc:type
           rdf:resource="http://purl.org/dc/dcmitype/StillImage" />
        <dc:title></dc:title>
      </cc:Work>
    </rdf:RDF>
  </metadata>
  <g
     inkscape:label="Layer 1"
     inkscape:groupmode="layer"
     id="layer1"
     transform="translate(-541.71832,-429.91738)">
    <g
       id="g38870"
       transform="matrix(1.25,0,0,-1.25,658.56082,491.69613)"
       style="fill:#000000">
      <path
         inkscape:connector-curvature="0"
         d="M 0,0 0.313,0.147 0,0 z m -40.161,-29.641 0.419,-0.297 -0.419,0.297 z m 21.424,-108.775 0.391,0.367 -0.391,-0.367 z m 7.2,101.659 -0.043,-0.407 0.043,0.407 z m 31.066,63.605 c 0.086,0.057 0.804,0.183 0.315,0.312 -0.209,0.055 -0.446,-0.105 -0.315,-0.312 m -92.142,-151.43 c 0.086,0.059 0.802,0.184 0.313,0.313 -0.21,0.056 -0.445,-0.106 -0.313,-0.313 M 26.771,41.569 c -0.132,0.207 0.104,0.368 0.314,0.313 0.489,-0.129 -0.229,-0.255 -0.314,-0.313 m -63.759,-66.051 c -0.354,0.093 0.023,0.551 0.116,0.83 0.354,-0.096 -0.023,-0.553 -0.116,-0.83 m -15.296,-24.679 c -0.095,-0.194 -0.37,-0.27 -0.443,-0.034 0.101,0.027 0.664,0.489 0.443,0.034 m 22.374,29.563 c -0.132,0.207 0.105,0.369 0.314,0.314 0.49,-0.128 -0.228,-0.254 -0.314,-0.314 M 9.213,-51.483 c -0.132,0.207 0.105,0.368 0.315,0.313 0.489,-0.129 -0.228,-0.255 -0.315,-0.313 M -7.738,20.649 c -0.207,-0.131 -0.369,0.106 -0.314,0.316 0.129,0.487 0.255,-0.228 0.314,-0.316 m -14.313,-71.79 c 0.221,0.455 -0.341,-0.006 -0.442,-0.033 0.07,-0.236 0.348,-0.161 0.442,0.033 m -36.48,-88.861 c -0.094,-0.195 -0.37,-0.27 -0.442,-0.035 0.1,0.028 0.662,0.489 0.442,0.035 m 44.84,134.725 c 0.207,0.131 0.368,-0.106 0.313,-0.316 -0.129,-0.488 -0.255,0.229 -0.313,0.316 m -12.225,-11.992 c -0.081,-0.218 -0.396,-0.102 -0.314,0.117 0.081,0.218 0.395,0.102 0.314,-0.117 m 5.343,-1.466 c 0.081,0.219 -0.234,0.337 -0.315,0.116 -0.081,-0.218 0.235,-0.334 0.315,-0.116 m 42.927,33.778 c 0.034,-0.138 0.062,-0.338 0.226,-0.374 l 0.257,0.694 c -0.181,0.022 -0.552,-0.05 -0.483,-0.32 m -63.138,-50.352 c -0.081,-0.218 -0.396,-0.102 -0.315,0.117 0.081,0.218 0.396,0.102 0.315,-0.117 M 3.532,8.823 C 2.99,9.478 3.938,9.056 4.051,8.901 4.002,8.83 3.717,8.601 3.532,8.823 m -22.635,-49.855 c -0.081,-0.219 -0.395,-0.103 -0.314,0.117 0.081,0.219 0.396,0.102 0.314,-0.117 M -0.828,-0.185 C -0.658,0.121 -0.28,0.059 0,0 -0.173,-0.309 -0.549,-0.246 -0.828,-0.185 m -55.17,-71.589 c 0.06,-0.002 0.247,0.112 0.28,0.128 -0.212,0.11 -0.499,0.269 -0.719,0.034 0.08,-0.03 0.347,-0.16 0.439,-0.162 m 35.761,42.678 0.758,-0.024 -0.758,0.024 z m 2.185,-8.615 c -0.092,0.004 -0.36,0.134 -0.438,0.162 0.22,0.236 0.507,0.077 0.719,-0.032 -0.034,-0.016 -0.22,-0.132 -0.281,-0.13 m -49.616,-97.179 c -0.081,-0.219 -0.396,-0.102 -0.314,0.118 0.081,0.218 0.395,0.102 0.314,-0.118 m 46.183,97.563 c 0.162,0.33 0.541,0.223 0.761,0.066 -0.204,-0.182 -0.503,-0.101 -0.761,-0.066 m -18.883,17.474 -0.687,0.254 c 0.132,0.181 0.42,0.333 0.599,0.232 0.141,-0.08 0.246,-0.312 0.088,-0.486 m 30.423,-17.68 c -0.075,0.145 0.089,0.855 0.226,0.742 0.283,-0.234 0.356,-0.481 0.104,-0.579 -0.064,-0.026 -0.243,-0.123 -0.33,-0.163 m -9.2,7.265 c 0.159,0.173 0.052,0.405 -0.086,0.484 -0.179,0.103 -0.467,-0.051 -0.599,-0.23 l 0.685,-0.254 z m 2.878,15.776 c -1.166,0.03 0.088,0.375 0.148,0.449 -0.031,-0.144 -0.025,-0.452 -0.148,-0.449 M 2.258,-40.71 c 0.12,0.136 -0.043,0.442 -0.126,0.505 -0.309,-0.192 -0.388,-1.092 0.126,-0.505 m 3.948,50.974 c 0.077,-0.01 0.382,0.152 0.509,0.203 -0.133,0.251 -0.716,0.398 -1.026,-0.004 -0.043,-0.057 0.319,-0.17 0.517,-0.199 m 2.13,14.975 c -0.178,0.161 -0.139,0.566 0.185,0.48 0.157,-0.044 0.374,-0.317 0.168,-0.52 -0.111,-0.11 -0.265,-0.041 -0.353,0.04 m -15.076,-64.194 0.142,0.385 c -0.254,0.178 -0.874,0.537 -0.782,-0.149 l 0.64,-0.236 z m -4.406,-110.396 c -0.543,-0.231 -0.25,0.538 -0.007,0.642 0.543,0.23 0.248,-0.539 0.007,-0.642 M 21.209,-1.728 c 0.318,0.155 0.668,0.25 0.881,0.469 l -0.692,0.257 c -0.082,-0.23 -0.291,-0.585 -0.189,-0.726 M 10.797,30.071 c -0.027,0.285 0.223,0.631 0.542,0.55 l -0.338,-0.914 c -0.159,0.031 -0.191,0.239 -0.204,0.364 M -14.88,9.933 c -0.544,-0.233 -0.248,0.538 -0.006,0.641 0.542,0.231 0.248,-0.54 0.006,-0.641 m 37.989,37.632 c 0.241,0.102 0.536,0.873 -0.007,0.64 -0.243,-0.101 -0.538,-0.872 0.007,-0.64 M -16.622,8.343 c 0.031,0.017 0.127,0.054 0.158,0.066 0.253,0.098 0.178,0.362 0.009,0.449 -0.174,0.091 -0.467,-0.044 -0.511,-0.234 -0.042,-0.186 0.107,-0.41 0.344,-0.281 m 12.008,-51.924 0.156,0.422 c -0.334,0.28 -0.812,0.21 -1.058,-0.088 l 0.902,-0.334 z m 8.65,42.741 c 0.028,0.017 0.126,0.056 0.157,0.067 0.253,0.096 0.177,0.359 0.008,0.449 C 4.029,-0.233 3.735,-0.368 3.692,-0.559 3.65,-0.745 3.798,-0.968 4.036,-0.84 m -78.472,-131.8 -0.902,0.334 c 0.245,0.297 0.725,0.368 1.059,0.087 l -0.157,-0.421 z m 88.478,90.348 c 0.128,0.154 0.199,0.407 0.423,0.489 0.248,0.09 0.396,-0.118 0.347,-0.313 -0.077,-0.302 -0.493,-0.23 -0.77,-0.176 m -27.154,34.497 c -0.115,0.178 -0.166,0.45 -0.018,0.636 l 0.637,-0.236 c -0.091,-0.225 -0.115,-0.834 -0.347,-0.678 -0.146,0.097 -0.244,0.233 -0.272,0.278 m 28.244,38.317 c -0.209,-0.204 -0.471,-0.113 -0.371,0.136 0.086,0.212 0.345,0.509 0.58,0.431 0.409,-0.135 -0.059,-0.418 -0.209,-0.567 m -21.986,-73.24 0.238,0.645 c -0.272,0.154 -0.672,0.074 -0.86,-0.218 -0.205,-0.317 0.396,-0.335 0.622,-0.427 M 21.377,7.961 21.525,8.362 C 21.25,8.408 20.391,9.242 20.463,8.299 l 0.914,-0.338 z m -77.958,-134.545 c -0.694,-0.239 -0.383,0.49 -0.198,0.614 0.121,0.081 0.797,-0.048 0.658,-0.214 -0.204,-0.248 -0.317,-0.35 -0.46,-0.4 m 42.197,57.332 c 0.233,0.093 0.529,0.179 0.689,0.37 l -0.845,0.313 c -0.214,-0.22 -0.528,-0.955 0.156,-0.683 m -31.104,3.057 c 0.148,0.089 0.554,0.413 0.683,0.512 -0.073,0.028 -0.356,0.174 -0.422,0.157 -0.249,-0.07 -0.555,-0.154 -0.607,-0.367 -0.049,-0.199 0.111,-0.44 0.346,-0.302 M 30.954,6 C 30.813,6.44 31.307,6.453 31.535,6.221 31.742,6.009 31.858,5.682 31.71,5.443 31.425,5.526 31.088,5.586 30.954,6 m -88.397,-94.964 c 0.276,-0.054 0.657,0.221 0.552,0.402 -0.193,0.336 -0.724,0.289 -1.002,-0.045 -0.284,-0.342 0.312,-0.331 0.45,-0.357 m 44.259,50.41 c -0.239,0.028 -0.882,0.137 -0.733,0.311 0.374,0.433 0.98,0.306 1.107,0.003 0.111,-0.259 -0.208,-0.333 -0.374,-0.314 m -32.097,-35.384 c -0.079,0.01 -0.647,0.125 -0.756,0.127 0.167,0.205 0.464,0.331 0.7,0.336 0.385,0.01 0.725,-0.272 1.135,-0.514 -0.194,-0.29 -0.742,0.01 -1.079,0.051 m -2.048,-55.327 c -0.972,-0.246 -0.17,0.715 -0.104,0.959 l 0.596,-0.22 c -0.08,-0.281 -0.131,-0.646 -0.492,-0.739 m 27.035,84.349 c 0.35,-0.044 0.867,-0.025 1.033,0.365 -0.551,0.213 -1.255,0.215 -1.671,-0.155 0.151,-0.055 0.51,-0.194 0.638,-0.21 m -20.392,-16.245 c 0.02,-0.008 0.239,0.08 0.274,0.109 0.21,0.179 0.013,0.392 -0.09,0.519 -0.248,0.306 -0.722,0.11 -0.904,-0.176 -0.188,-0.293 0.427,-0.356 0.72,-0.452 m 30.498,16.347 c 0.59,-0.242 1.329,-0.22 1.847,0.203 -0.51,0.281 -1.132,0.071 -1.67,-0.053 -0.035,-0.009 -0.148,-0.14 -0.177,-0.15 m 17.816,-7.894 c -0.137,0.277 0.071,0.602 0.397,0.594 0.431,-0.011 0.598,-0.357 0.297,-0.665 -0.144,-0.149 -0.359,-0.281 -0.561,-0.215 -0.038,0.013 -0.103,0.224 -0.133,0.286 m -35.65,21.643 c 0.361,0.041 0.75,-0.039 1.079,0.107 0.245,0.11 0.176,0.392 -0.014,0.437 -0.291,0.07 -0.646,-0.215 -1.057,-0.193 -0.309,0.017 -0.395,-0.396 -0.008,-0.351 m -23.374,-18.192 c -0.13,-0.006 -0.467,0.059 -0.25,0.314 0.141,0.166 0.355,0.301 0.564,0.299 0.177,0 0.762,-0.281 0.985,-0.364 -0.299,-0.405 -0.868,-0.229 -1.299,-0.249 m 48.717,-18.31 c 0.349,-0.004 0.499,0.3 0.453,0.584 -0.031,0.2 -0.508,0.449 -0.773,0.097 -0.26,-0.343 -0.114,-0.678 0.32,-0.681 m -53.939,-62.118 c 0.255,0.028 0.426,0.353 0.621,0.605 0.079,0.102 0.248,0.39 -0.078,0.407 -0.479,0.028 -0.719,-0.419 -1.002,-0.684 -0.323,-0.305 0.289,-0.346 0.459,-0.328 M 4.841,1.295 C 4.867,1.231 4.945,1.044 4.976,0.977 5.419,1.231 5.953,1.561 6.045,2.141 5.732,1.943 5.39,1.883 5.048,1.846 4.807,1.818 4.766,1.491 4.841,1.295 m 16.983,39.269 c -0.03,0.461 0.424,0.588 0.752,0.692 0.063,-0.371 0.141,-0.826 -0.054,-1.188 -0.288,0.081 -0.674,0.129 -0.698,0.496 M -42.37,-18.987 c -0.232,-0.064 -0.378,0.107 -0.312,0.289 0.091,0.25 0.491,0.344 0.786,0.383 0.633,0.085 0.481,-0.5 0.169,-0.781 -0.028,-0.024 -0.494,0.148 -0.643,0.109 m 43.631,-19.091 0.25,0.675 c -0.15,0.055 -0.6,0.265 -0.715,0.264 -0.312,0.001 -0.613,-0.219 -0.658,-0.523 l 1.123,-0.416 z m -42.263,-39.11 c -0.388,-0.044 -0.3,0.367 -0.199,0.373 0.774,0.046 1.358,0.053 1.821,0.288 0.151,-0.168 0.239,-0.393 -0.014,-0.485 -0.5,-0.181 -1.069,-0.113 -1.608,-0.176 m 58.598,90.681 c -0.198,0.043 -0.755,0.109 -0.374,0.486 0.217,0.215 0.393,0.631 0.691,0.558 0.305,-0.075 0.477,-0.572 0.162,-0.845 -0.107,-0.093 -0.272,-0.245 -0.479,-0.199 m -84.86,-140.299 c -0.071,0.218 0.222,0.302 0.429,0.31 0.115,0.003 0.567,-0.21 0.692,-0.257 -0.15,-0.323 -0.101,-0.929 -0.631,-0.9 -0.297,0.015 -0.38,0.508 -0.49,0.847 m 85.186,86.937 c 0.002,0.244 0.141,0.594 0.53,0.545 0.084,-0.011 0.531,-0.197 0.649,-0.24 -0.023,-0.371 -0.28,-0.746 -0.679,-0.734 -0.232,0.007 -0.503,0.167 -0.5,0.429 m -18.701,-0.142 c 0.035,-0.06 0.221,-0.088 0.248,-0.085 0.423,0.045 0.854,0.031 1.237,0.183 0.25,0.1 0.161,0.325 0.032,0.47 -0.257,-0.078 -0.532,0.09 -0.814,0.009 -0.256,-0.074 -0.951,-0.15 -0.703,-0.577 m -39.087,-25.802 c 0.507,0.004 1.097,-0.112 1.494,0.238 0.241,0.215 -0.428,0.386 -0.685,0.353 -0.328,-0.042 -0.733,-0.057 -1.039,-0.292 -0.268,-0.207 0.096,-0.301 0.23,-0.299 m 49.485,15.917 c -0.141,0.43 0.505,0.784 0.585,1.342 0.219,-0.01 0.421,-0.228 0.425,-0.469 0.008,-0.471 -0.517,-0.745 -0.587,-1.258 -0.166,0.026 -0.337,0.124 -0.423,0.385 m -22.215,-83.822 c 0.307,-0.05 0.6,0.163 0.758,0.343 0.178,0.203 0.505,0.778 0.136,0.798 -0.556,0.03 -0.878,-0.533 -1.319,-0.839 -0.34,-0.236 0.289,-0.279 0.425,-0.302 m 9.435,74.329 c 0.509,0.203 0.893,0.604 1.031,1.033 -0.327,0.221 -0.799,0.32 -0.941,0.021 -0.138,-0.287 -0.964,-1.403 -0.09,-1.054 m -7.213,-35.096 c -0.973,-0.187 -0.721,0.634 -0.38,0.855 0.262,0.169 0.819,0.12 1.264,0.177 -0.22,-0.5 -0.619,-0.982 -0.884,-1.032 m -10.929,-27.08 c -0.179,0.202 0.061,0.334 0.324,0.369 0.209,-0.302 0.33,-0.849 0.855,-0.839 0.067,-0.637 -0.583,-0.641 -1.161,-0.569 -0.166,0.019 0.337,0.637 -0.018,1.039 m -12.39,77.774 c 0.008,0.24 0.168,0.658 0.547,0.541 0.313,-0.098 0.645,-0.443 1.073,-0.661 -0.169,-0.387 -0.677,-0.388 -1.036,-0.345 -0.247,0.031 -0.596,0.138 -0.584,0.465 m 19.126,-7.237 c 0.081,-0.079 0.386,-0.143 0.501,-0.186 0.318,0.269 0.723,0.472 1.029,0.74 0.35,0.307 -0.303,0.387 -0.438,0.393 -0.199,0.009 -0.841,-0.215 -0.955,-0.346 -0.127,-0.148 -0.291,-0.453 -0.137,-0.601 m -27.365,-23.588 c -0.151,0.168 -0.013,0.762 0.405,0.675 0.292,-0.062 1.14,-0.414 1.433,-0.523 -0.032,-0.309 -0.411,-0.395 -0.667,-0.384 -0.408,0.018 -0.884,-0.085 -1.171,0.232 m -35.813,-53.485 c -0.222,0.395 0.35,0.451 0.544,0.427 0.341,-0.041 0.679,-0.01 1.107,-0.068 l -0.831,-1.153 c -0.454,0.008 -0.622,0.439 -0.82,0.794 m 20.296,52.918 c 0.132,-0.02 0.533,0.191 0.631,0.232 0.062,0.545 0.848,1.217 0.419,1.332 -0.753,0.201 -0.89,-0.817 -1.563,-1.298 -0.244,-0.175 0.372,-0.242 0.513,-0.266 m -26.921,-57.245 c -0.225,-0.05 -0.368,0.112 -0.306,0.278 0.118,0.312 0.586,0.282 0.944,0.212 0.643,-0.122 1.397,0.083 2.013,-0.333 -0.247,-0.268 -0.709,-0.311 -1.043,-0.241 -0.356,0.074 -1.291,0.155 -1.608,0.084 M 13.501,5.022 c 0.021,-0.005 0.248,0.079 0.281,0.135 0.295,0.489 1.14,0.38 1.101,1.139 C 14.543,6.417 14.16,6.344 13.813,6.204 13.478,6.068 13.046,5.845 12.735,5.512 12.507,5.268 13.208,5.118 13.501,5.022 M -5.81,-1.168 c -0.463,-0.024 -0.88,-0.505 -1.383,-0.294 0.354,0.58 0.623,1.236 1.325,1.503 0.102,0.039 0.224,0.606 0.263,0.71 0.405,0.027 0.506,-0.239 0.312,-0.567 -0.252,-0.422 -0.842,-0.795 -0.517,-1.352 m 17.403,-49.564 c -0.038,0.533 0.76,0.625 1.18,0.79 0.562,0.219 1.282,0.051 1.706,0.615 0.411,-0.436 -0.235,-0.719 -0.606,-0.922 -0.426,-0.232 -1.344,0.01 -1.735,-0.686 l -0.545,0.203 z M 6.932,-72.17 c -0.127,0.24 0.085,0.482 0.164,0.735 0.453,-0.211 0.906,-0.483 1.298,-0.804 0.324,-0.268 0.481,-0.949 -0.05,-1.071 -0.565,-0.128 -0.488,0.874 -1.234,0.833 -0.028,0.049 -0.143,0.238 -0.178,0.307 m -34.32,-83.39 c -0.331,0.317 0.033,0.713 0.174,0.986 0.156,0.3 0.429,0.556 0.741,0.762 0.249,-0.19 0.494,-0.406 0.902,-0.479 -0.241,-0.708 -1.011,-1.002 -1.587,-1.336 -0.035,-0.021 -0.197,0.036 -0.23,0.067 m 9.158,138.581 c 1.261,0.238 2.575,0.763 3.798,1.016 0.452,0.094 -0.218,0.406 -0.32,0.377 -1.131,-0.325 -2.197,-0.84 -3.404,-0.999 -0.262,-0.036 -0.312,-0.438 -0.074,-0.394 m -0.498,-1.351 c 0.147,-0.257 0.152,-0.682 0.45,-0.571 0.582,0.217 1.173,0.453 2.006,0.548 0.173,0.019 0.47,0.249 0.474,0.69 -0.463,0.072 -1.017,-0.014 -1.509,-0.159 -0.484,-0.144 -1.155,-0.071 -1.421,-0.508 m -6.767,-12.548 c 0.521,0.144 1.075,0.519 1.662,0.206 0.006,-0.4 0.312,-0.488 0.215,0.069 -0.054,0.311 0.528,0.269 0.7,0.489 0.215,0.27 -0.453,0.425 -0.686,0.367 -0.484,-0.122 -1.047,-0.084 -1.553,-0.235 -0.301,-0.09 -0.606,-0.337 -0.722,-0.581 -0.073,-0.154 0.134,-0.382 0.384,-0.315 m -10.304,28.912 c -0.11,0.211 0.007,0.749 0.412,0.734 0.381,0.663 1.319,0.58 1.85,0.294 0.206,-0.11 0.265,-0.523 -0.041,-0.54 -0.639,-0.035 -1.17,-0.459 -1.75,-0.631 -0.089,-0.029 -0.433,0.072 -0.471,0.143 m 13.348,-27.992 c -0.015,-0.643 0.589,-0.963 0.986,-1.241 0.425,0.405 1.008,0.589 1.347,1.035 -0.257,0.096 -1.021,0.454 -1.28,0.461 -0.375,0.008 -1.044,0.13 -1.053,-0.255 m 1.665,-19.569 c 0.521,0.133 1.116,0.361 1.684,0.209 0.129,0.395 0.135,0.98 0.666,0.915 0.26,-0.032 0.323,0.406 0.078,0.376 -1.029,-0.127 -1.97,-0.666 -2.898,-1.166 -0.385,-0.206 0.295,-0.379 0.47,-0.334 m 43.117,87.343 c -0.136,0.237 0.089,0.406 0.294,0.379 0.075,-0.009 0.347,-0.359 0.488,-0.395 0.277,-0.071 0.693,0.419 0.885,0.059 0.075,-0.141 0.269,-0.552 0.262,-0.681 -0.012,-0.199 -0.289,-0.781 -0.382,-1.032 -0.406,0.359 -0.939,0.746 -1.361,0.738 -0.028,0.377 -0.035,0.675 -0.186,0.932 M -56.256,-78.45 c -0.07,0.485 0.484,0.531 0.736,0.548 0.249,0.016 0.729,0.326 0.821,0.325 0.482,-0.004 0.903,-0.286 0.874,-0.862 -0.519,0.141 -1.363,-0.35 -1.709,-0.516 -0.385,-0.185 -0.674,0.188 -0.722,0.505 m 42.811,87.675 c -0.017,0.281 0.183,0.506 0.453,0.567 0.351,0.078 0.747,0.111 1.071,0.014 -0.02,-0.522 0.55,-1.045 0.192,-1.319 -0.386,-0.295 -0.974,-0.354 -1.34,-0.011 -0.111,0.1 -0.369,0.615 -0.376,0.749 m 23.882,-65.032 c -0.066,0.051 -0.442,0.163 -0.592,0.219 0.327,0.264 0.789,0.474 1.218,0.513 0.555,0.052 1.178,-0.195 1.732,-0.193 0.105,-0.247 0.324,-0.483 0.225,-0.678 -0.093,-0.184 -0.365,-0.259 -0.435,0.016 -0.147,0.582 -0.741,0.189 -1.142,0.49 0.023,-0.341 0.347,-0.689 0.325,-1.076 -0.009,-0.124 -0.047,-0.757 -0.336,-0.389 -0.283,0.359 -0.577,0.772 -0.995,1.098 m -6.37,-5.632 c 0.439,-0.408 1.094,-0.282 1.558,0.146 0.222,0.204 -0.073,0.757 0.294,1.03 0.364,0.271 -0.214,0.532 -0.495,0.409 -0.279,-0.121 -0.635,-0.536 -1.116,-0.486 -0.115,-0.389 -0.537,-0.822 -0.241,-1.099 m 21.931,60.698 0.246,-0.262 1.928,1.127 c 0.229,0.134 0.305,0.608 -0.086,0.902 -0.362,0.277 -0.971,-0.332 -1.481,0.103 0.145,-0.637 -0.44,-1.38 -0.607,-1.87 m -41.309,-135.501 c -0.369,0.083 -0.788,0.077 -0.874,0.284 -0.285,0.697 0.52,0.119 0.716,0.109 0.217,-0.01 0.639,0.262 0.706,0.253 1.005,-0.126 2.189,-0.314 3.032,-0.948 -0.314,-0.484 -0.989,-0.766 -1.403,-0.333 -0.23,0.239 -0.288,0.844 -0.768,0.689 -0.459,-0.148 -0.956,-0.154 -1.409,-0.054 m -44.451,48.081 c 0.113,-0.483 0.305,-1.215 0.923,-0.994 0.495,0.176 0.45,0.851 0.721,1.194 0.168,0.213 0.514,0.265 0.694,0.483 -0.408,0.146 -0.875,0.218 -1.082,0.543 -0.229,-0.112 -0.843,-0.34 -0.98,-0.482 -0.112,-0.115 -0.292,-0.671 -0.276,-0.744 m 58.325,17.216 c 0.011,-0.169 0.279,-0.684 0.402,-0.798 0.118,-0.111 0.64,-0.34 0.802,-0.33 0.196,0.01 0.87,0.26 0.979,0.418 0.184,0.265 0.125,0.826 -0.23,1.054 -0.461,0.295 -1.095,0.287 -1.678,0.398 -0.053,-0.143 -0.284,-0.597 -0.275,-0.742 m -91.455,-52.559 c -0.124,0.019 -0.48,0.178 -0.582,0.216 0.009,0.489 0.417,0.718 0.819,0.798 0.421,0.085 0.914,0.241 1.31,-0.054 0.288,0.127 1.141,0.646 1.488,0.651 0.366,0.008 0.3,-0.695 0.184,-1.134 -0.953,0.319 -1.891,-0.081 -2.534,-0.422 -0.168,-0.088 -0.567,-0.073 -0.685,-0.055 m 36.561,-8.107 c 0.073,-0.131 0.172,-0.336 0.196,-0.355 0.238,-0.17 0.517,-0.202 0.72,-0.018 0.552,0.494 1.164,1.05 1.533,1.745 0.104,0.194 -0.578,0.762 -0.77,0.567 -0.575,-0.581 -1.217,-1.24 -1.679,-1.939 m -1.67,-4.383 c -0.02,0.258 0.178,0.505 0.451,0.537 0.64,0.074 0.599,-0.709 0.862,-1.063 0.144,-0.193 0.429,-0.337 0.403,-0.583 -0.067,-0.62 -0.722,-1.021 -0.972,-1.64 l -0.665,0.246 c 0.072,0.195 0.361,0.784 0.353,0.952 -0.019,0.332 -0.406,1.248 -0.432,1.551 m 43.345,92.905 2.748,0.559 c 0.578,0.13 0.078,-0.395 0.045,-0.423 -0.26,-0.231 -0.693,-0.141 -0.916,-0.449 0.668,-0.242 1.401,-0.14 1.928,0.14 0.288,0.155 0.262,0.616 0.063,0.894 -0.183,0.255 -0.553,0.547 -0.964,0.473 -0.899,-0.158 -1.853,-0.489 -2.814,-0.834 -0.205,-0.073 -0.402,-0.419 -0.09,-0.36 M 7.652,6.735 C 8.391,6.918 9.188,6.9 9.834,7.307 10.096,7.472 9.964,8.044 9.801,8.379 9.765,8.452 9.351,8.64 9.249,8.612 8.36,8.383 7.767,7.646 6.915,7.006 6.758,6.888 7.441,6.683 7.652,6.735 m -60.899,-59.722 c -0.261,-0.025 0.052,0.587 0.25,0.839 0.35,0.443 1.031,0.353 1.622,0.437 0.59,0.085 1.294,-0.051 1.88,-0.324 -0.029,-0.389 -0.281,-0.75 -0.681,-0.731 -1.006,0.05 -2.005,-0.116 -3.071,-0.221 m 34.439,7.792 c 0.078,-0.022 0.639,0.077 0.818,0.054 1.763,-0.222 3.452,10e-4 4.943,0.587 -0.267,0.099 -0.764,0.339 -0.905,0.335 l -4.016,-0.158 c -0.383,-0.033 -1.598,-0.606 -0.84,-0.818 m 7.216,54.885 c 0.131,0.81 1.012,-0.084 1.339,-0.073 0.3,0.008 0.898,0.395 1.079,0.39 0.548,-0.015 1.119,-0.03 1.504,-0.263 0.365,-0.221 0.251,-0.57 0.04,-0.796 C -7.723,8.85 -7.983,8.794 -8.01,8.62 -8.035,8.444 -7.903,8.249 -7.752,8.136 -8.087,7.855 -8.521,7.933 -8.863,8.242 c -0.19,0.173 -0.228,0.735 -0.513,0.779 -0.408,0.065 -0.797,-0.144 -1.06,-0.042 -0.273,0.105 -0.879,0.542 -1.156,0.711 m 22.918,-27.354 c 0.564,-0.081 1.076,-0.098 1.587,-0.012 0.519,0.087 1.074,0.776 1.685,0.249 0.173,0.399 0.082,1.274 0.736,1.183 0.36,-0.051 1.052,0.361 0.303,0.297 -1.345,-0.118 -2.478,-0.742 -3.903,-0.708 -0.182,0.004 -0.858,-0.421 -1.041,-0.639 -0.221,-0.266 0.459,-0.345 0.633,-0.37 m -76.239,-49.915 c -0.239,-0.016 -0.921,0.342 -1.344,0.498 1.633,0.378 3.283,0.592 4.886,0.488 0.521,-0.035 0.218,-0.438 0.06,-0.677 0.638,-0.269 0.202,-0.661 -0.171,-0.67 -1.102,-0.028 -2.372,0.431 -3.431,0.361 m 74.649,20.985 c -0.241,0.694 0.625,0.894 1.046,0.944 0.707,0.084 1.536,-0.155 2.103,-0.619 0.257,-0.21 0.148,-0.503 0.015,-0.699 -0.58,-0.853 -2.091,-0.605 -3.1,0.257 0.126,-0.107 -0.038,0.041 -0.064,0.117 M -9.43,-89.656 c -0.146,-0.2 -0.068,-0.645 0.22,-0.791 0.462,-0.234 0.96,-0.483 1.42,-0.818 0.109,-0.08 0.435,-0.248 0.403,0.095 -0.054,0.594 -0.64,0.914 -1.061,1.285 -0.19,0.167 -0.429,0.472 -0.233,0.756 0.658,-0.098 1.438,-0.585 1.878,-0.173 0.52,0.486 -0.013,1.082 -0.422,1.296 -0.245,0.128 -0.554,0.247 -0.846,0.18 -0.884,-0.206 -0.861,-1.154 -1.359,-1.83 m -14.783,-33.025 c -0.14,0.74 0.972,-0.025 1.331,-0.151 0.122,-0.043 0.293,-0.523 0.407,-0.613 0.42,-0.327 1.097,-0.053 1.425,-0.395 0.329,-0.34 0.512,-0.874 0.496,-1.323 -0.014,-0.408 -0.575,-0.733 -0.558,-1.188 0.014,-0.377 0.299,-0.814 -0.076,-1.265 -0.512,1.179 -0.758,2.346 -0.975,3.545 -0.741,0.173 -1.261,0.53 -1.782,0.924 -0.028,0.021 -0.217,0.204 -0.268,0.466 m -5.691,-12.055 c -0.116,-0.017 -0.189,0.295 0.017,0.445 1.455,1.061 3.161,1.717 4.977,1.974 0.333,0.046 0.162,-0.267 0.088,-0.375 -0.109,-0.159 -0.491,-0.56 -0.538,-0.589 -1.443,-0.875 -2.976,-1.228 -4.544,-1.455 m 13.714,-17.243 c -0.572,0.087 1.034,0.766 1.027,0.762 1.012,0.71 1.952,0.856 2.79,1.283 0.229,-0.435 -0.676,-0.811 -0.354,-1.089 0.383,-0.331 0.678,-0.35 0.892,-0.174 0.239,0.196 0.495,0.497 0.784,0.476 -0.145,-0.861 -0.957,-1.64 -1.78,-1.343 -0.254,0.09 -0.575,0.232 -0.776,0.398 -0.761,-0.401 -1.624,-0.46 -2.583,-0.313 m -46.891,99.087 c -0.116,0.148 -0.194,0.365 0.045,0.491 0.931,0.488 2.273,0.338 3.141,-0.356 0.401,-0.319 1.206,0.121 1.548,-0.029 0.368,-0.16 0.69,-0.543 0.331,-0.773 -0.324,-0.209 -0.808,-0.661 -1.265,-0.204 -0.729,-0.24 -1.67,-0.097 -2.305,0.495 -0.193,0.18 -0.723,-0.126 -1.017,-0.038 -0.108,0.034 -0.396,0.313 -0.478,0.414 m 51.276,72.593 c -0.012,0.393 0.193,1.301 0.513,1.414 1.275,0.447 2.352,1.374 3.462,2.25 0.191,0.153 0.461,0.329 0.655,0.231 0.182,-0.09 0.252,-0.35 0.003,-0.453 -0.255,-0.106 -0.543,-0.251 -0.59,-0.554 l 0.94,-0.349 c 0.004,0.418 0.298,0.671 0.783,0.585 -0.224,0.258 -0.201,0.629 0.357,0.549 0.127,-0.018 -0.179,-0.587 -0.338,-0.818 -0.292,-0.432 -0.687,-0.839 -1.108,-1.029 -0.251,-0.111 -0.555,-0.212 -0.776,-0.032 -0.346,0.285 0.127,0.727 -0.141,1.079 -1.174,-1.217 -2.282,-2.316 -3.76,-2.873 m 15.993,2.221 c 0.402,0.924 1.119,1.841 1.959,2.365 0.27,-0.276 0.635,-0.529 0.757,-0.462 1.2,0.664 2.379,1.184 3.492,2.174 -0.042,-0.037 0.145,0.392 0.193,0.523 0.516,-0.504 1.009,0.252 1.462,0.06 0.099,-1.098 -0.629,-1.648 -1.252,-1.861 l -0.17,0.514 C 9.158,24.087 7.391,23.473 5.788,22.723 5.249,22.471 4.94,21.896 4.459,21.632 l -0.271,0.29 z M -85.78,-125.994 c 0.143,0.06 0.641,0.354 0.794,0.334 0.605,-0.08 1.211,-0.268 1.826,-0.391 0.147,-0.625 0.699,-1.025 1.275,-1.103 0.834,-0.112 1.752,0.011 2.628,-0.346 0.066,-0.525 -0.335,-0.456 -0.531,-0.389 -0.364,0.126 -0.562,-0.172 -0.479,-0.455 0.031,-0.101 -0.161,-0.511 -0.239,-0.566 -0.362,-0.245 -0.782,-0.562 -1.117,-0.463 -0.444,0.131 0.031,0.426 0.163,0.579 0.307,0.356 -0.294,0.373 -0.467,0.427 -0.684,0.216 -1.448,0.184 -2.027,0.571 -0.275,0.185 -0.265,0.546 -0.31,0.867 -0.605,0.139 -1.154,0.424 -1.516,0.935 m 6.873,-7.037 c -0.251,-0.044 -1.267,0.468 -1.649,0.609 0.293,0.328 1.146,0.254 0.988,0.941 -0.068,0.295 -0.421,0.928 0.029,1.011 0.585,0.109 1.336,-0.012 2.059,-0.035 0.38,-0.013 1.578,-0.472 1.839,-0.762 0.303,-0.336 0.074,-1.491 -0.773,-1.397 -0.12,0.014 -0.498,0.208 -0.582,0.169 -0.605,-0.283 -1.241,-0.42 -1.911,-0.536 m 65.612,-1.515 c -0.277,0.153 -1.2,0.444 -1.782,0.66 1.473,0.611 2.762,1.561 4.042,2.448 -0.002,0 0.157,0.538 0.261,0.595 0.369,0.202 0.857,0.237 1.294,-0.002 -0.123,-0.764 -1.104,-0.776 -1.612,-1.211 0.396,-0.182 0.957,-0.13 1.016,-0.605 0.02,-0.176 0.11,-0.728 0.055,-0.878 l -0.811,-2.189 c -0.59,0.287 -1.24,0.364 -1.763,0.561 -0.218,0.081 -0.551,0.54 -0.7,0.621 m 10.204,71.576 c 0.048,-0.339 0.407,-0.795 0.008,-1.167 -0.165,-0.152 -0.112,-0.865 0.177,-0.584 0.668,0.65 1.466,1.344 2.495,1.697 0.227,0.077 -0.11,-0.494 -0.173,-0.684 0.408,-0.197 1.256,-0.44 1.184,-0.085 -0.193,0.949 0.925,1.32 1.217,1.659 0.194,0.227 -0.227,0.684 -0.547,0.827 -0.63,0.285 0.132,1.33 -0.191,1.256 -1.392,-0.322 -2.512,-1.121 -3.79,-1.933 -0.078,-0.05 -0.414,-0.744 -0.38,-0.986 M -19.088,5.792 c -0.293,-0.257 -0.23,-0.688 -0.378,-0.845 -0.522,-0.558 -1.184,-0.849 -1.725,-1.331 -0.303,0.255 -0.857,0.905 -0.411,1.307 0.184,0.167 0.997,0.358 1.129,0.552 0.21,0.301 0.024,0.832 0.113,0.963 0.932,1.361 2.115,2.214 3.354,2.936 l -0.896,0.332 c 0.566,0.623 1.775,0.613 2.45,-0.201 -0.275,-0.119 -0.414,-0.444 -0.488,-0.779 0.176,-0.136 0.436,-0.073 0.63,0.029 -0.085,-0.232 -0.245,-1.141 -0.452,-1.222 -0.981,-0.383 -2.185,-0.521 -3.04,-1.343 -0.067,-0.065 -0.233,-0.311 -0.286,-0.398 m -0.995,-37.639 c 0.658,-0.026 1.489,0.518 2.325,0.478 0.966,-0.048 1.701,-0.695 2.636,-0.552 l 4.655,1.043 c 0.382,0.086 1.27,0.294 1.185,1.095 0.393,0.202 0.799,0.337 1.053,0.574 -0.465,0.31 -0.995,0.169 -1.604,0.207 -0.501,0.03 -1.457,0.053 -1.537,-0.538 -1.96,-0.597 -3.858,-0.887 -5.838,-1.038 -1.116,-0.086 -2.091,0.078 -3.128,-0.731 0.009,0.006 -0.037,-0.526 0.253,-0.538 m -42.283,-19.436 c -0.329,0.058 0.345,0.391 0.413,0.672 0.174,0.697 0.146,1.69 0.874,2.098 0.334,0.187 0.929,-0.028 0.836,-0.372 -0.557,-0.071 -0.347,-0.452 0.055,-0.48 0.595,-0.044 0.499,0.612 0.797,0.811 1.205,0.798 3.348,1.025 4.59,-0.456 0.155,-0.185 1.298,0.041 1.785,0.046 -0.308,-0.705 -1.631,-0.629 -2.359,-0.724 -0.394,-0.052 -0.107,-1.245 -0.472,-1.277 -2.261,-0.202 -4.264,-0.723 -6.519,-0.318 m 86.974,72.407 c 0.427,0.426 1.294,0.821 1.632,1.309 1.536,-0.443 2.429,0.635 3.235,1.465 0.201,0.209 0.405,0.5 0.732,0.5 0.106,0 0.484,-0.161 0.516,-0.21 0.232,-0.36 0.661,-0.796 0.291,-1.238 -0.18,-0.215 -0.525,-1.02 -0.706,-1.234 -0.089,-0.105 -0.55,-0.268 -0.586,-0.337 -0.556,-1.046 -0.598,-2.003 -0.579,-2.359 -0.377,-1.482 -1.303,-2.066 -2.145,-1.856 -0.184,0.047 -0.755,0.219 -0.854,0.331 -0.283,0.323 -0.452,0.729 -0.46,1.172 -0.268,0.104 -0.588,-0.001 -0.679,0.067 -0.551,0.411 -0.695,1.233 0.036,1.364 l -0.433,1.026 z m -71.417,-158.872 c -0.148,-0.01 -0.602,0.223 -0.753,0.278 0.056,0.15 0.153,0.835 0.33,0.889 5.351,1.595 11.014,3.01 16.237,5.035 0.511,0.198 1.114,0.25 1.373,0.406 0.334,0.202 0.372,0.619 0.047,0.866 -0.414,0.316 0.282,0.581 0.49,0.76 0.268,0.232 0.697,0.258 1.096,0.148 0.854,-0.235 1.515,-0.879 2.341,-0.71 0.339,0.069 0.033,-0.354 -0.015,-0.376 -1.548,-0.727 -3.038,-1.449 -4.419,-2.296 -0.346,-0.212 -1.427,-0.103 -1.716,-0.222 -0.74,-0.306 -1.662,-0.575 -2.119,-1.464 -0.143,-0.278 -0.746,-0.486 -0.952,-0.431 -1.211,0.318 -2.221,-0.279 -3.15,-0.41 -2.202,-1.121 -4.776,-1.761 -7.411,-1.821 -0.493,-0.01 -0.817,-0.617 -1.379,-0.652 M 16.212,25.909 c 0.422,0.704 1.037,1.431 1.46,2.307 0.25,0.513 0.945,0.844 1.224,1.357 0.09,0.168 -0.002,0.787 0.086,0.88 1.025,1.054 2.061,2.011 3.366,2.538 0.052,-0.315 -0.217,-0.823 -0.361,-1.226 l 1.409,-0.222 c -0.45,-0.602 0.368,-1.156 -0.182,-1.742 0.133,-0.237 0.188,-0.645 0.411,-0.695 0.197,-0.041 0.626,0.059 0.732,-0.02 0.429,-0.315 -0.279,-0.56 -0.469,-0.789 -0.159,-0.193 -0.507,-0.183 -0.533,-0.463 -0.028,-0.32 0.089,-0.718 -0.181,-1.005 -0.439,-0.465 -1.273,0.366 -1.863,-0.399 -0.197,-0.257 -0.131,-0.904 -0.408,-0.891 -1.457,0.065 -2.409,-0.675 -3.447,-1.134 -0.405,-0.178 -1.19,-0.092 -1.179,0.547 0.003,0.172 -0.176,0.774 -0.065,0.957 m 2.976,17.262 c -0.25,0.038 -0.616,0.352 -0.709,0.405 1.186,0.453 2,1.724 2.652,3.36 0.077,0.198 0.7,0.311 0.754,0.419 l 1.027,2.068 c 0.412,-0.18 0.21,-0.904 0.496,-1.011 l 2.42,-0.895 c 1.058,0.562 2.286,0.967 3.408,1.327 0.168,-0.717 0.799,-1.013 0.847,-1.468 0.029,-0.285 -0.379,-1.022 -0.512,-1.381 -0.454,0.55 -1.06,1.226 -2.086,1.374 0.065,-0.61 -0.131,-1.257 -0.434,-1.869 -0.228,0.106 -0.562,0.333 -0.816,0.054 C 25.819,45.1 25.067,44.861 25,44.322 c -0.069,-0.553 0.084,-1.09 -0.258,-1.604 -0.483,0.262 -0.711,1.005 -1.435,1.145 0.343,-0.453 0.059,-1.183 -0.392,-1.241 -0.503,-0.066 -1.061,-0.257 -1.396,-0.752 -0.061,0.339 -0.249,0.732 -0.678,0.543 -0.472,0.401 -1.096,0.674 -1.653,0.758 M -32.714,-1.274 c 0.004,0.168 0.19,0.732 0.305,0.822 0.319,0.253 0.735,0.515 1.117,0.528 0.311,0.011 1.228,-0.534 1.428,-0.502 1.192,0.195 2.168,0.655 3.065,1.109 1.226,-0.418 2.451,0.15 3.012,1.039 0.365,-0.271 -0.19,-0.678 -0.029,-0.859 0.301,-0.342 0.694,-0.286 1.045,0.075 0.166,0.17 0.531,0.25 0.875,-0.042 -0.14,-0.077 -0.657,-0.397 -0.205,-0.561 0.397,-0.143 0.68,0.339 0.729,0.867 0.903,0.123 2.001,0.16 2.62,0.855 0.356,0.401 1.003,0.484 1.491,0.476 -0.003,-0.391 -0.305,-0.55 -0.652,-0.582 -0.25,-0.022 -0.882,-0.339 -0.991,-0.489 -0.201,-0.273 -0.489,-1.319 -0.668,-1.805 l 1.579,0.984 c -0.548,-0.762 -0.88,-1.62 -0.122,-1.925 1.006,-0.406 1.853,-1.029 3.064,-0.926 -0.335,-0.399 -0.395,-0.983 -0.025,-1.01 0.289,-0.02 0.943,-0.291 0.714,-0.353 -0.827,-0.232 -1.722,-0.379 -2.659,-0.275 -1.064,0.12 -2.12,0.154 -3.362,0.052 -1.234,0.715 -2.905,0.683 -4.065,-0.038 l 0.359,0.971 c -0.432,0.405 -0.902,-0.06 -1.251,-0.109 -0.863,-0.119 -1.703,-0.006 -2.415,-0.238 l -0.176,0.728 c -1.054,0.342 -1.847,0.934 -2.416,0.842 -0.875,-0.139 -1.501,-0.373 -2.071,-0.354 -0.081,0.197 -0.3,0.591 -0.296,0.72 m 13.533,-128.664 c 0.015,0.33 0.466,1.45 0.729,1.777 0.255,0.316 0.817,0.55 1.136,0.838 0.729,0.661 1.089,1.691 1.892,2.229 1.258,0.843 2.539,2.22 3.928,3.027 0.642,-0.487 1.163,-1.575 0.855,-2.454 -0.069,-0.199 -0.541,-0.706 -0.159,-0.714 0.362,-0.009 0.746,0.324 1.144,-0.099 0.251,-0.27 0.67,-0.881 0.585,-1.166 -0.399,-1.339 -0.855,-2.532 -1.459,-3.515 -0.906,-0.384 -1.584,-1.166 -2.3,-1.875 -1.267,-0.444 -2.356,-1.25 -3.432,-1.798 -1.099,0.616 -2.012,1.052 -2.592,1.854 -0.383,0.529 -0.356,1.24 -0.327,1.896 m -20.98,100.297 c 0.781,0.157 1.562,0.307 2.466,0.624 0.067,0.79 -1.564,1.171 -2.186,1.496 -0.284,0.149 -0.514,0.693 -0.396,0.954 0.337,0.746 1.05,1.164 1.715,1.44 0.175,0.072 0.963,-0.356 1.203,-0.445 l -0.245,-0.693 c 0.592,0.036 1.031,0.803 1.351,0.695 1.147,-0.386 2.237,-0.189 3.295,-0.285 0.845,0.852 2.342,0.708 3.683,0.805 0.215,0.016 0.561,0.236 0.76,0.237 2.947,0.04 5.433,1.102 7.957,1.959 0.287,0.096 0.374,0.956 -0.071,1.024 -1.693,0.261 -3.249,10e-4 -4.711,-0.449 -0.505,-0.155 -0.927,0.041 -1.354,0.223 -0.404,-0.7 -1.222,-0.34 -1.588,-0.342 -1.221,-0.004 -2.582,0.487 -3.854,0.891 -0.61,-0.567 -1.062,-1.594 -1.98,-1.639 -0.414,-0.019 -0.557,0.308 -0.301,0.635 0.264,0.336 0.724,0.158 0.859,0.271 0.5,0.414 0.134,0.798 -0.104,1.073 -0.584,0.678 -1.461,-0.355 -1.901,-0.172 -0.333,0.137 -0.689,0.469 -0.842,0.355 -0.751,-0.566 -1.866,-0.243 -2.683,0.51 -0.328,0.302 -0.838,0.668 -0.805,1.217 0.024,0.39 0.535,-0.009 0.673,-0.097 1.073,-0.692 2.162,-0.698 3.013,-0.301 0.521,0.243 1.359,-0.171 1.756,0.651 1.774,-1.822 4.828,-1.619 6.334,-0.717 0.274,0.165 0.698,0.011 0.721,0.306 0.029,0.323 -0.018,0.655 0.086,0.997 0.753,0.092 1.344,0.665 2.076,0.77 l 2.752,0.478 c 0.415,0.081 0.419,1.123 1.047,0.963 0.363,-0.092 0.578,0.234 0.787,0.301 l 2.497,0.754 c 1.69,0.124 3.198,0.701 4.708,1.057 0.135,0.609 0.839,0.626 1.194,0.945 -0.136,0.425 -0.466,0.671 -0.709,0.971 0.292,0.4 0.511,1.195 0.974,1.126 1.158,-0.169 2.157,0.085 3.315,0.395 -0.722,0.43 -1.963,0.618 -2.581,1.227 0.781,0.955 1.099,2.441 0.93,3.64 0.366,0.731 1.382,1.132 2.442,1.145 0.046,0 0.373,-0.163 0.562,0.116 0.14,0.21 0.533,0.92 0.522,1.181 -0.012,0.286 -0.619,0.514 -0.384,0.879 0.274,0.424 0.813,0.495 1.171,0.752 0.092,0.066 0.164,0.444 0.197,0.55 0.747,0.173 1.43,0.576 2.128,0.859 0.22,0.088 0.393,-0.289 0.182,-0.421 -0.214,-0.132 -0.236,-0.433 -0.329,-0.66 l 0.656,-0.236 c -0.436,-0.265 -0.692,-0.758 -0.806,-1.205 0.37,0.3 0.922,0.1 1.281,0.425 0.26,0.237 0.146,0.762 -0.162,0.802 -0.084,0.012 -0.248,-0.026 -0.313,-0.022 0.451,0.462 0.929,1.004 1.643,1.209 l -0.71,-1.076 2.384,1.097 C 0.343,-0.306 0.78,-0.861 1.09,-0.534 0.866,-0.26 0.613,-0.024 0.313,0.147 L 1.854,0.097 C 2.115,0.615 1.964,1.231 2.164,1.801 2.687,1.479 2.229,0.715 2.459,0.661 2.996,0.53 3.27,1.002 3.282,1.457 3.298,1.989 4.139,2.117 4.13,2.874 3.714,2.718 3.218,2.598 2.748,2.58 2.412,2.566 2.582,2.868 2.658,2.974 2.997,3.434 3.299,3.902 3.433,4.461 4.014,4.439 4.524,4.779 4.939,5.101 4.664,4.391 4.255,3.784 3.951,3.161 4.241,2.979 4.598,3.069 4.809,3.3 4.865,3.364 4.946,3.803 5.022,3.837 5.817,4.216 6.545,4.728 7.133,5.437 7.312,5.651 7.205,5.883 6.923,5.866 6.459,5.84 5.941,5.957 5.542,5.63 5.627,5.858 5.839,6.582 5.919,6.646 6.571,7.169 7.134,7.794 7.481,8.523 6.847,7.896 5.573,8.018 4.529,8.864 4.107,9.205 5.268,8.651 5.395,8.727 5.925,9.039 5.466,9.307 5.149,9.347 4.09,9.483 2.881,9.931 1.689,10.455 1.405,10.581 1.458,11.117 1.58,11.604 c 0.992,-0.2 2.289,-0.652 2.992,-0.938 0.112,-0.047 0.408,0.076 0.527,0.249 l -4.348,1.876 c 0.426,0.626 1.807,-0.252 2.464,-0.416 0.996,-0.252 1.899,-0.462 2.702,-0.251 -0.041,0.601 0.582,0.643 1.116,0.861 0.079,0.032 0.616,-0.047 0.539,0.336 -0.1,0.493 0.364,0.509 0.569,0.248 0.496,0.218 0.964,0.38 1.292,0.548 0.603,0.313 0.018,0.637 -0.593,0.626 0.602,0.473 1.337,0.719 1.502,1.519 0.605,-0.389 0.832,-1.41 1.789,-1.567 0.039,0.407 0.322,0.872 0.815,0.745 0.766,-0.197 1.603,-0.32 2.336,-0.11 0.412,0.116 -0.03,0.544 -0.068,0.671 -0.176,0.601 -0.764,0.524 -1.144,1.046 0.006,-0.006 -0.434,0.757 -0.23,1.037 0.449,0.621 1,0.209 1.39,0.041 0.259,0.219 0.467,0.45 0.779,0.531 0.016,-0.296 -0.018,-0.687 0.29,-0.818 0.478,-0.204 0.916,-0.525 1.199,-0.987 1.907,1.095 3.704,2.421 5.414,3.987 -0.053,-0.619 0.317,-1.053 0.288,-1.289 -0.182,-1.439 -0.897,-2.307 -1.804,-2.482 -0.971,-0.187 -1.901,-0.996 -2.836,-0.897 -0.594,0.061 -1.127,-0.774 -1.817,-1.164 0.152,-0.502 0.178,-1.361 -0.427,-1.818 0.416,-0.249 0.761,-0.588 1.26,-0.567 1.543,0.067 2.952,1.077 4.075,2.483 -0.696,0.175 -0.985,-0.539 -1.455,-0.538 -0.29,0.002 0.023,0.719 0.243,0.95 0.465,0.486 1.26,0.627 1.929,0.619 0.419,-0.003 0.625,0.504 0.789,0.844 0.441,-0.003 0.613,-0.318 0.703,-0.688 0.055,-0.227 -0.034,-0.476 -0.147,-0.652 l -1.28,-1.995 c -0.093,-0.146 0.274,-0.536 0.268,-0.856 -0.357,0.301 -0.682,0.188 -0.922,-0.063 -0.155,-0.163 -0.73,-0.3 -0.841,-0.419 -0.101,-0.109 -0.223,-0.601 -0.278,-0.751 L 21.622,11.198 20.375,9.842 C 20.729,9.425 20.987,9.059 21.36,9.054 21.693,9.048 22.104,9.397 22.488,9.097 23.152,8.582 23.386,7.763 24.016,7.263 24.235,7.088 24.65,7.308 24.961,7.152 24.76,6.711 24.357,6.331 24.388,5.813 24.417,5.311 24.932,5.577 24.972,5.56 26.021,5.101 27,5.485 27.977,5.126 28.162,5.058 28.661,5.653 29.052,5.222 29.278,4.971 29.354,4.547 29.036,4.386 28.629,4.181 28.509,3.722 28.382,3.254 29.21,3.212 30.165,3.021 31.183,2.498 31.018,2.118 30.369,2.31 30.197,1.999 29.77,1.222 30.062,0.433 29.94,-0.175 29.237,-0.802 28.497,-1.394 27.954,-2.309 27.81,-2.553 26.814,-2.97 27.393,-3.461 c 0.512,-0.434 1.013,0.626 1.74,0.38 0.178,-0.06 0.666,-0.265 0.795,-0.313 -0.14,-1.091 -0.879,-1.71 -1.263,-2.234 0.493,-0.648 0.036,-1.096 0.356,-1.717 0.096,-0.184 -0.16,-1.113 -0.256,-1.375 -0.08,-0.218 -0.478,-0.833 -0.668,-1.004 -0.24,-0.212 -0.802,-0.276 -0.772,-0.591 0.051,-0.52 -0.112,-1.456 -0.892,-1.394 -1.079,0.085 -2.238,-0.749 -3.052,-1.763 l -3.442,-0.831 c -0.816,-0.342 -1.612,-1.158 -1.843,-2.427 -0.088,-0.483 -1.114,-1.196 -0.666,-1.72 0.854,0.719 1.695,1.178 2.63,1.497 0.094,0.031 0.749,-0.051 0.405,-0.318 -0.96,-0.742 -1.878,-1.533 -2.944,-1.907 -0.294,-0.103 -0.024,-0.574 -0.238,-0.761 -0.25,-0.22 -0.75,-0.025 -0.902,-0.309 -0.243,-0.456 -0.703,-1.137 -0.362,-1.335 0.645,-0.378 1.13,-1.239 0.857,-1.971 -0.2,-0.537 -1.145,-0.659 -0.98,-1.116 0.238,-0.659 -0.22,-1.155 -0.308,-1.642 -0.088,-0.489 0.004,-1.313 -0.309,-1.408 -0.897,-0.271 -1.704,-0.885 -2.5,-1.681 -0.252,-0.253 -0.758,-0.63 -1.097,-0.921 -0.187,-0.162 -0.293,-0.813 -0.306,-0.82 -0.813,-0.497 -0.803,-1.606 -1.342,-2.299 0.209,-0.268 0.672,-0.266 1.051,-0.28 -0.388,-0.877 -1.148,-1.406 -1.864,-1.522 l -0.43,-1.16 c 0.685,-0.677 0.206,-1.684 -0.404,-2.466 -0.399,-0.512 -1.908,-0.964 -1.232,-1.932 0.345,-0.493 0.688,-1.079 0.991,-1.845 0.891,-0.116 1.908,0.645 2.523,1.088 0.385,0.276 0.935,0.466 1.401,0.245 -0.126,-0.401 -0.265,-0.842 -0.651,-1.083 -0.507,-0.316 -1.108,-0.492 -1.483,-0.83 -0.142,-0.128 -0.3,-0.832 0.003,-0.557 0.834,0.755 2.073,0.939 3.048,1.644 0.322,-0.155 0.682,-0.33 1.055,-0.153 -0.275,-0.407 -0.232,-0.899 0.084,-1.339 -0.636,-0.3 -1.376,-0.593 -1.776,-1.294 -0.436,0.243 -0.752,0.884 -1.013,0.782 -1.452,-0.565 -2.821,-1.101 -4.01,-1.969 -0.406,-0.659 -1.323,-0.915 -1.939,-1.026 -0.799,-0.454 -1.747,-0.4 -2.634,-0.478 -0.489,-0.043 -0.986,-0.853 -1.321,-0.952 -0.927,-0.281 -1.556,-0.91 -1.422,-1.75 -0.554,-0.387 -1.261,-0.446 -1.472,-0.333 -2.03,1.086 -3.92,0.731 -5.175,-0.111 -0.138,-0.092 -0.642,0.43 -0.661,-0.013 -0.011,-0.281 0.116,-0.628 0.287,-0.696 1.324,-0.527 2.373,-0.138 3.388,0.246 0.253,0.096 0.365,-0.115 0.395,-0.342 l -1.3,-0.742 c -0.281,0.044 -0.697,0.117 -0.773,-0.185 -0.051,-0.196 0.098,-0.403 0.347,-0.313 0.224,0.082 0.294,0.333 0.426,0.498 0.396,-0.308 0.822,0.028 1.181,0.07 0.281,0.033 1.071,-0.467 1.371,-0.437 0.654,0.068 1.134,0.71 1.946,0.743 0.045,0.003 0.448,-0.11 0.525,-0.194 0.143,-0.15 0.359,-0.802 0.502,-0.952 0.077,-0.084 0.536,-0.136 0.6,-0.222 0.242,-0.335 0.74,-1.503 0.903,-1.833 0.873,0.024 0.735,-0.922 1.488,-1.174 0.492,-0.165 0.404,-1.042 0.043,-1.463 -0.607,-0.711 -1.51,-1.307 -2.082,-2.007 0.218,-0.408 0.623,-0.28 0.895,-0.228 1.503,0.288 2.73,1.215 3.891,2.291 l -0.283,0.431 c 0.261,0.101 0.592,0.452 0.816,0.249 0.12,-0.11 0.293,-0.563 0.284,-0.689 -0.016,-0.214 -0.434,-0.861 -0.398,-1.073 0.059,-0.344 0.887,-1.317 0.922,-1.655 0.031,-0.293 -0.431,-1.163 -0.523,-1.415 -1.234,0.421 -2.175,-0.515 -2.991,-0.938 -0.31,0.298 -0.435,0.617 -0.71,0.577 -0.439,-0.064 -0.694,-0.748 -0.415,-1.03 0.264,-0.267 0.661,-0.279 0.964,-0.135 0.754,0.356 1.592,0.432 2.356,0.738 0.399,0.161 0.086,-0.467 -0.006,-0.533 l -2.368,-1.83 c -0.356,-0.252 -0.624,-0.717 -0.68,-1.134 -0.046,-0.336 0.24,-0.564 0.458,-0.811 -0.108,-0.287 -0.421,-0.65 -0.107,-0.924 0.505,-0.442 0.856,-1.302 0.401,-1.767 -0.419,-0.43 -1.156,-0.116 -1.499,0.265 -0.285,-0.086 -0.662,-0.142 -0.676,-0.43 -0.063,-1.327 0.569,-2.37 1.408,-3.438 0.017,-0.021 0.071,-0.576 0.177,-0.692 0.501,-0.548 0.878,-1.483 1.796,-1.41 0.427,0.033 0.301,-0.948 -0.024,-1.101 -0.828,-0.39 -1.555,-1.258 -1.928,-2.619 -0.153,-0.56 -0.863,-0.74 -1.417,-0.84 -0.099,-0.018 -0.555,0.282 -0.681,0.228 -0.629,-0.274 -1.23,-0.743 -1.903,-1.11 0.457,-0.044 0.787,-0.29 0.825,-0.692 0.069,-0.733 -0.797,-0.698 -1.022,-1.212 0.363,-0.212 0.729,-0.147 0.936,-0.286 0.421,-0.28 -0.015,-0.723 -0.113,-1.066 -0.171,0.063 -0.756,0.356 -0.951,0.352 -0.201,-0.003 -0.798,-0.361 -1.043,-0.37 -0.224,-0.009 -0.765,0.395 -0.744,0.153 0.069,-0.821 -0.583,-1.018 -1.018,-1.237 0.1,-0.26 0.185,-0.448 0.352,-0.576 -0.193,-0.096 -0.856,-0.335 -0.894,-0.44 -0.529,-1.449 -1.314,-2.645 -1.213,-3.866 -0.334,-0.176 -0.713,-0.295 -1.099,-0.659 0.715,-0.339 1.324,-1.738 0.986,-2.529 -0.326,0.037 -0.446,0.32 -0.675,0.541 -0.612,-0.259 -0.68,-1.1 -1.466,-1.244 -0.122,-0.379 -0.184,-0.918 -0.699,-1.121 -0.307,-0.121 -0.609,-0.361 -0.895,-0.603 -0.173,-0.147 -0.223,-0.844 -0.414,-0.638 -0.472,0.514 -1.076,0.602 -1.553,0.789 -0.093,0.685 0.539,0.346 0.718,0.343 0.492,-0.011 0.92,-0.025 1.21,0.162 0.123,0.078 0.342,0.704 0.286,0.843 -0.387,0.941 -0.989,1.884 -1.183,2.952 -0.07,-0.19 -0.187,-0.694 -0.292,-0.789 -0.203,-0.184 -1.101,-0.468 -1.226,-0.715 -0.23,-0.458 -0.036,-1.13 -0.23,-1.76 -0.09,-0.29 0.524,-0.821 0.088,-1.036 -0.407,-0.201 -0.883,-0.349 -1.37,-0.562 -0.432,0.325 -1.193,0.475 -1.492,-0.165 -0.601,-0.048 -0.547,-0.906 -0.792,-0.993 -0.718,-0.254 -1.339,-0.862 -1.693,-1.649 -0.203,-0.453 0.65,-0.777 0.818,-1.426 1.374,-0.363 2.542,0.133 3.712,0.399 0.768,0.442 1.685,0.21 2.583,0.195 2.769,1.655 5.72,2.723 8.47,3.176 1.451,0.859 2.536,1.609 3.749,1.993 0.319,0.1 0.162,-0.274 0.079,-0.389 -0.149,-0.208 -0.395,-0.335 -0.606,-0.409 0.027,-0.202 0.14,-0.414 0.378,-0.288 0.347,0.186 0.69,0.201 0.993,-10e-4 -0.159,-0.63 -0.35,-1.395 -0.984,-1.646 -0.561,-0.222 -1.296,-1.008 -1.05,-1.868 0.402,-0.093 0.926,0.195 1.195,-0.169 0.435,-0.587 0.386,-1.49 -0.307,-2.057 -0.42,-0.344 -0.876,-0.713 -1.283,-1.102 -0.232,-0.224 0.751,-0.236 0.805,-0.717 0.063,-0.588 -0.582,-0.648 -0.94,-0.745 -0.272,-0.073 -0.58,0.152 -0.582,0.509 -0.001,0.184 -0.115,0.384 -0.36,0.266 -0.33,-0.16 -0.371,-0.677 -0.114,-0.967 0.202,-0.229 0.655,-0.549 0.498,-0.788 l -1.232,-1.881 c -0.087,-0.134 0.005,-0.733 -0.067,-0.879 -0.132,-0.266 -0.848,-0.94 -0.87,-1.2 -0.037,-0.45 0.188,-1.049 -0.109,-1.46 -0.082,-0.112 -0.641,-0.269 -0.665,-0.399 -0.16,-0.848 -0.628,-1.429 -1.262,-1.743 -0.478,-0.235 -0.44,0.825 -0.798,1.045 -0.688,0.426 -0.966,1.288 -0.955,2.178 0.266,0.132 1.051,-0.316 1.556,-0.496 0.128,0.277 0.352,0.61 0.08,0.87 -0.356,0.34 -0.748,1.15 -1.15,0.896 -0.803,-0.506 -1.731,-0.757 -2.806,-1.169 -0.458,-0.754 -0.509,-1.865 -1.006,-2.916 -0.068,-0.141 0.057,-0.48 0.343,-0.404 0.366,0.098 0.778,0.479 1.127,0.332 0.482,-0.201 -0.184,-0.641 -0.419,-0.758 l -3.07,-1.45 c -0.714,-0.92 -2.157,-1.201 -2.334,-2.702 -0.503,-1.217 -1.838,-1.828 -3.062,-1.759 -0.859,0.049 -1.642,-0.384 -2.665,-0.569 -0.301,-0.055 -0.344,-1.101 -1.046,-1.259 -0.318,-0.071 -0.747,0.419 -1.093,0.076 -1.208,-1.193 -3.274,-1.829 -5.377,-0.773 -0.154,0.078 -0.853,-0.401 -1.063,-0.36 -0.343,0.066 -0.801,0.273 -1.098,-0.085 -0.095,-0.114 -0.182,-0.72 -0.298,-0.804 -0.423,-0.307 -0.928,-0.577 -1.427,-0.67 -0.161,-0.03 -0.678,0.293 -0.856,0.275 -0.324,-0.032 -0.725,-0.412 -0.902,-0.228 -0.265,0.275 -0.627,0.857 -0.176,1.025 0.68,0.255 1.384,0.704 2.034,1.287 0.077,0.07 0.245,0.565 0.022,0.57 -1.338,0.036 -2.745,-0.247 -4.386,-0.248 0.102,0 -0.318,-0.178 -0.452,-0.166 -0.214,0.015 -0.845,0.341 -0.918,0.329 -1.367,-0.242 -2.579,-0.648 -3.496,-1.594 -0.514,-0.531 0.311,-0.967 0.705,-1.245 0.403,-0.286 1.064,0.181 1.535,0.37 0.435,0.174 1.027,0.084 1.585,-0.21 -0.479,-0.464 -1.338,-0.846 -1.539,-1.742 0.163,-0.027 0.644,-0.038 0.73,-0.114 0.134,-0.117 0.289,-0.699 0.399,-0.759 0.776,-0.431 1.543,-0.415 2.251,-0.55 -0.343,-0.59 -1.193,-0.623 -1.675,-0.933 -2.005,-1.284 -4.548,-1.769 -7.161,-1.923 -0.028,0.7 -0.399,0.281 -0.532,0.02 -0.799,0.509 -1.571,-0.07 -1.927,-0.473 l -1.083,0.402 c 0.07,0.397 0.08,0.835 0.341,1.149 0.236,0.281 0.668,0.198 1.022,0.401 -0.065,0.568 -0.706,0.271 -0.939,0.162 -1.184,-0.558 -2.481,-0.906 -3.718,-1.394 -0.038,-0.61 -0.705,-0.917 -1.072,-1.2 -0.893,-0.693 -2.202,-0.92 -3.015,-1.253 -0.554,-1.128 -1.419,-1.5 -2.059,-1.692 -0.293,-0.087 -0.395,-0.439 -0.504,-0.456 -0.6,-0.093 -0.63,0.465 -0.736,0.792 -0.187,0.578 -0.528,1.156 -0.718,1.745 -0.15,0.468 -0.727,-0.197 -0.94,0.014 -0.787,0.782 -0.916,2.52 0.212,3.125 0.501,0.27 1.001,0.637 1.548,0.731 0.199,0.034 0.871,-0.427 1.056,-0.391 0.508,0.101 1.042,0.33 1.437,0.648 0.127,0.101 0.213,0.723 0.312,0.793 0.832,0.593 1.914,0.745 3.042,0.471 0.217,0.363 0.359,0.694 0.044,0.905 -0.117,0.078 -0.682,0.329 -0.907,0.31 -0.821,-0.064 -1.796,-0.313 -2.67,-0.067 -0.463,0.13 -0.72,0.976 -1.068,0.909 -4.295,-0.836 -8.628,-1.66 -13,-2.445 -0.738,-0.133 -1.095,-0.766 -1.802,-1.022 -0.062,-0.023 -0.185,-0.5 -0.243,-0.657 -0.628,0.005 -1.21,-0.317 -1.907,-0.746 -0.167,-0.102 0.375,-0.701 0.085,-1.153 -0.772,0.423 -1.489,0.55 -2.14,0.529 0.087,0.236 0.397,0.832 0.376,1.016 -0.033,0.295 -0.661,1.228 -0.57,1.396 0.428,0.785 1.017,1.449 1.57,1.964 -0.367,0.413 -0.514,1.092 -0.061,1.176 3.595,0.677 7.518,0.729 11.334,0.651 0.563,-0.012 1.074,0.367 1.413,0.635 -1.367,1.324 -2.975,0.785 -4.35,0.731 -1.606,-0.063 -3.378,-0.333 -5.094,-0.365 -0.363,-0.007 -0.607,-0.609 -0.955,-0.579 -0.214,0.016 -0.57,0.211 -0.633,0.233 -0.825,-0.756 -2.032,-0.694 -2.929,-1.088 -0.17,-0.075 -0.221,-0.519 -0.494,-0.562 -0.685,-0.105 -1.452,-0.385 -2.055,-0.176 -0.424,0.148 -0.806,0.434 -1.142,0.686 -0.115,0.088 -0.263,0.564 -0.433,0.688 -0.523,0.386 -1.369,0.455 -1.741,0.437 -1.918,-0.092 -3.795,0.067 -5.897,0.566 -0.005,-0.235 0.077,-1.057 -0.322,-0.758 -0.39,0.293 -0.154,0.649 0.075,1.146 -1.324,-0.356 -3.154,-0.561 -4.405,0.395 -0.19,0.146 -0.761,-0.518 -0.89,-0.14 -0.203,0.601 -0.757,0.856 -0.902,1.269 -0.168,0.475 0.361,1.065 0.824,1.396 -0.196,0.149 -0.505,0.453 -0.217,0.75 0.324,0.333 0.806,0.22 1.089,-0.066 0.088,-0.09 0.382,-0.247 0.568,0.009 0.204,0.28 0.8,0.573 1.101,0.251 0.699,0.822 1.246,1.702 1.657,2.641 0.298,0.681 1.305,0.613 2.013,0.836 -0.109,0.517 -0.204,1.065 -0.094,1.649 0.703,0.192 1.502,0.24 2.23,0.51 -0.258,0.28 -0.629,0.495 -0.735,0.826 -0.04,0.123 0.223,0.604 0.271,0.734 -1.034,0.526 -2.008,1.297 -2.949,1.59 0.339,0.393 0.889,0.732 1.249,0.759 0.73,0.052 1.513,0.131 2.277,-0.237 1.114,0.676 2.656,0.524 4.04,0.52 0.267,0.708 -0.164,1.225 -0.18,1.861 -0.583,-0.407 -1.168,0.066 -1.67,0.394 -0.494,0.322 0.095,0.71 0.221,0.94 l -0.781,0.289 1.134,1.371 c 0.1,-0.037 0.606,-0.143 0.745,-0.275 0.216,-0.205 0.288,-0.932 0.687,-0.717 1.39,0.75 2.976,1.12 4.525,1.683 0.16,0.058 0.472,0.247 0.41,0.556 -0.058,0.293 -0.549,0.467 -0.489,0.902 0.041,0.298 0.443,0.497 0.584,0.867 -0.25,0.102 -0.921,0.232 -0.657,0.406 0.682,0.454 1.411,0.773 2.15,1.087 0.727,-0.224 1.692,0.034 1.989,0.744 0.087,0.209 -0.304,0.651 0.092,0.961 0.306,0.238 0.972,0.127 1.5,0.659 -0.467,0.432 -1.387,1.006 -2.084,0.885 l -2.556,0.656 0.263,0.709 -0.813,0.3 c 0.827,0.339 1.792,0.361 2.514,0.752 -0.039,0.449 0.401,0.412 0.657,0.523 0.309,0.133 0.281,0.737 0.492,0.865 0.714,0.435 1.465,0.815 2.088,0.934 0.429,0.08 0.284,0.819 -0.066,0.801 -0.262,-0.012 -0.601,-0.414 -0.813,-0.206 -0.162,0.16 -0.357,0.777 -0.471,1.024 -0.834,-0.295 -1.901,0.081 -2.722,0.739 -0.152,0.122 0.271,0.56 0.653,0.435 1.875,-0.613 3.621,-0.406 4.975,-0.107 0.223,0.049 0.938,0.091 1.096,0.023 0.176,-0.075 0.255,-0.364 -0.288,-0.502 -0.098,-0.026 -0.183,-0.393 0.259,-0.344 l 3.122,0.305 1.919,-0.485 c 0.408,0.433 -0.045,0.912 -0.064,1.261 -0.029,0.546 0.372,0.994 0.815,1.432 -1.451,0.809 -2.862,1.134 -4.204,1.878 l 0.755,0.637 c 0.541,-0.394 1.494,-0.918 1.842,-0.69 0.545,0.354 1.465,0.467 2.343,0.049 -0.223,-0.303 -0.273,-0.749 0.031,-1.007 0.171,-0.147 0.748,-0.522 0.963,-0.663 0.371,0.2 0.814,0.392 1.216,0.058 0.191,0.433 -0.029,0.901 -0.316,1.17 -0.21,0.197 -1.285,0.476 -1.58,0.585 0.007,0.422 0.299,0.604 0.703,0.63 0.756,0.051 1.542,-0.189 2.167,0.147 1.152,0.622 2.496,1.272 4.09,0.848 l 0.299,0.806 -1.257,0.465 c 1.342,0.359 2.437,1.057 3.161,1.596 0.46,0.342 1.046,0.243 1.485,0.006 -0.176,-0.551 -1.071,-0.432 -1.021,-1.203 0.422,-0.107 0.867,0.029 1.304,-0.172 0.091,-0.044 0.606,0.334 0.792,0.254 1.64,-0.706 3.261,-0.037 3.923,0.354 0.715,0.42 1.273,0.091 1.462,0.381 0.095,0.147 0.033,0.975 0.136,1.043 0.796,0.519 1.777,0.484 2.863,0.606 0.159,0.018 0.444,0.2 0.615,0.296 0.442,0.242 0.869,0.506 0.992,0.878 0.069,0.208 -0.105,0.499 -0.258,0.757 0.187,0.134 0.62,0.36 0.267,0.627 0.106,0.602 -0.416,1.094 -0.444,1.618 -0.018,0.327 0.404,0.606 0.609,0.912 0.377,-0.305 0.243,-0.78 0.169,-1.075 -0.105,-0.425 0.25,-0.724 0.605,-0.741 0.123,-0.005 0.501,0.026 0.558,-0.013 0.171,-0.116 0.239,-0.352 -0.001,-0.47 -0.219,-0.109 -0.501,-0.073 -0.644,-0.187 -0.212,-0.167 -0.247,-0.498 -0.033,-0.665 0.369,-0.283 0.333,-0.996 0.907,-0.86 2.652,0.626 5.482,0.773 8.138,1.167 0.103,0.276 0.199,0.679 0.278,0.748 0.34,0.298 0.804,0.338 1.228,0.48 -0.28,0.705 -1.021,0.938 -2.051,1.183 2.996,0.874 5.758,1.343 8.505,1.811 0.556,0.095 1.205,0.555 1.701,0.942 -0.289,0.116 -0.947,0.205 -0.591,0.516 0.441,0.384 1.422,0.21 1.875,0.883 0.378,0.563 -0.524,0.607 -0.653,0.561 -1.917,-0.685 -4.137,-0.83 -5.917,-1.829 -0.5,-0.281 -0.561,-1.259 -1.157,-1.113 l -5.756,1.397 c -0.331,0.08 -0.665,-0.226 -0.714,-0.555 0.37,-0.19 0.809,-0.034 1.198,-0.291 -1.8,-0.699 -3.719,-0.969 -5.9,-0.641 l -0.472,-1.277 c -0.48,0.13 -0.384,0.849 -0.952,0.821 0.096,-0.302 -0.168,-0.573 -0.321,-0.792 -0.5,0.214 -0.19,0.584 0.058,0.863 0.405,0.458 -0.536,0.594 -0.835,0.59 -2.758,-0.032 -5.176,-1.046 -7.689,-1.548 -0.425,-0.085 -0.842,0.005 -1.287,0.116 0.086,-0.285 -0.002,-0.985 -0.428,-0.79 -0.402,0.185 -0.75,-0.206 -1.045,-0.208 -0.254,-10e-4 -0.885,0.311 -0.825,0.312 -2.321,-0.061 -4.107,-0.931 -6.072,-1.16 -0.105,-0.525 0.12,-1.07 -0.139,-1.369 -0.205,-0.238 -0.664,-0.235 -0.966,-0.154 -1.132,0.303 -1.984,0.859 -2.703,1.409 -0.272,-0.193 -0.592,-0.296 -0.854,-0.129 0.091,0.432 0.424,0.835 0.805,1.014 l 2.622,1.232 c 0.266,0.144 -0.535,0.298 -0.779,0.33 -0.854,0.109 0.172,0.541 0.147,0.518 0.658,0.571 1.166,1.237 1.123,2.121 0.479,-0.113 0.714,-0.561 1.111,-0.525 0.375,0.034 0.662,0.282 0.932,0.542 0.218,-0.143 0.501,-0.198 0.686,0.002 0.382,0.417 0.95,0.588 1.538,0.683 -0.047,0.402 -0.797,0.611 -1.279,0.625 -0.422,0.014 -0.941,-0.281 -1.478,-0.332 -0.899,-0.084 -1.882,0.126 -2.947,0.544 0.079,0.233 0.454,0.738 0.098,0.738 -0.616,-0.001 -1.261,-0.221 -1.824,0.183 0.208,0.444 0.728,0.687 1.002,1.152 0.483,-0.167 1.029,-0.138 1.51,-0.042 l -0.348,-0.94 c 0.338,-0.116 0.702,0.035 1.051,0.077 l 0.333,0.9 c 0.856,-0.057 1.771,-0.067 2.298,0.44 1.485,-0.066 2.863,0.056 4.082,0.31 0.205,0.042 0.401,0.318 0.586,0.27 0.898,-0.235 1.787,0.378 2.769,-0.035 0.283,-0.118 0.952,0.294 1.441,0.646 -2.574,0.662 -5.113,1.457 -7.374,1.689 0.177,0.665 0.905,1.045 1.639,1.012 2.793,-0.129 5.546,-0.255 7.838,0.831 0.254,0.121 0.391,0.537 -0.046,0.499 -0.335,-0.031 -0.763,0.061 -0.847,0.293 -0.108,0.29 0.206,0.372 0.425,0.354 0.478,-0.036 0.997,-0.293 1.495,-0.235 0.436,0.05 0.83,0.257 1.136,0.6 1.004,-0.319 1.95,-0.251 2.694,0.228 0.213,0.138 0.294,0.771 0.761,0.764 0.148,-0.002 0.645,-0.29 0.882,-0.276 0.392,0.025 0.875,0.535 1.463,0.156 0.924,-0.598 1.697,0.113 2.38,0.458 0.216,0.107 0.46,0.693 0.35,1.004 1.801,0.861 3.899,1.051 6.115,0.977 0.066,0.45 -0.096,0.797 -0.357,0.839 -0.416,0.069 -1.672,0.171 -2.176,0.222 0.427,0.355 1.004,0.437 1.34,0.799 0.247,0.268 0.308,1.074 -0.115,0.964 -0.635,-0.166 -1.335,-0.474 -2.117,-0.288 -0.157,0.037 -0.211,0.323 0.011,0.457 0.465,0.284 1.316,0.355 1.343,0.931 -0.346,0.154 -0.68,-0.06 -0.88,0.258 -0.195,0.314 -0.642,0.975 -1.092,0.471 -0.288,-0.323 -0.829,-1.153 -1.147,-0.875 -0.936,0.82 -2.253,0.31 -3.107,0.075 -0.808,-0.221 -1.774,0.138 -2.68,-0.218 -0.809,-0.321 0.626,0.36 0.493,0.727 -0.019,0.056 -0.381,0.273 -0.499,0.684 0.471,0.117 1.245,0.218 1.302,0.551 0.133,0.788 0.374,1.694 0.21,2.435 -0.048,0.215 -0.816,0.159 -0.749,0.576 0.123,0.771 -0.792,0.506 -0.785,1.171 0.004,0.443 0.414,0.457 0.703,0.445 0.778,-0.033 1.499,0.355 2.304,0.514 0.161,-0.619 0.906,-0.712 1.515,-0.705 0.146,10e-4 0.566,0.225 0.732,0.205 0.428,-0.049 0.899,-0.487 1.394,-0.263 0.187,-0.344 -0.365,-0.424 -0.57,-0.381 -0.991,0.208 -1.96,-0.317 -2.375,-1.387 -0.052,-0.131 -0.046,-0.6 -0.039,-0.974 0.411,-0.09 1.662,-0.267 2.012,-0.457 0.835,-0.451 1.831,-0.707 2.456,-1.194 0.35,-0.272 1.288,-0.075 1.349,0.517 0.026,0.23 -0.241,0.382 -0.343,0.5 1.175,0.468 2.361,1.073 3.718,0.864 0.271,-0.042 0.778,0.389 0.943,0.395 0.148,0.007 0.6,-0.221 0.922,-0.34 -0.5,-0.133 -1.682,-0.291 -1.875,-0.445 -0.444,-0.355 0.247,-0.474 0.355,-0.444 0.56,0.162 1.242,0.028 1.685,0.48 0.085,0.087 0.146,0.554 0.243,0.601 0.702,0.339 1.485,0.628 2.056,1.116 0.147,0.125 0.197,0.656 0.324,0.744 0.261,0.183 0.774,0.049 1.035,0.405 -0.527,0.153 -1.046,0.236 -1.556,0.284 -0.181,0.017 -0.813,-0.292 -0.942,-0.459 -0.137,-0.179 -0.197,-0.556 -0.575,-0.513 -0.125,0.014 -0.636,0.263 -0.692,0.23 -0.743,-0.45 -1.471,0.247 -1.957,-0.454 -0.668,0.278 -1.351,1.056 -1.016,1.625 0.125,0.21 0.474,0.444 0.484,0.565 0.042,0.53 -0.616,0.171 -0.906,0.17 -0.25,-10e-4 -0.422,0.39 -0.216,0.434 0.716,0.156 1.383,0.557 2.15,0.53 0.204,-0.007 0.747,-0.302 0.813,-0.291 1.477,0.267 2.837,0.372 4.057,0.339 0.685,-0.018 1.138,0.446 1.568,0.871 0.183,-0.759 1.107,-0.628 1.811,-0.165 0.102,0.067 -0.255,0.504 0.162,0.749 -0.321,0.156 -0.218,0.539 -0.048,0.761 0.171,0.224 0.278,0.471 0.342,0.689 0.638,0.137 1.209,0.415 1.768,0.249 0.244,0.4 -0.158,0.639 -0.349,0.827 0.745,0.074 0.595,1.028 1.223,0.895 0.568,-0.123 1.092,-0.153 1.579,-0.194 -0.168,-0.363 -0.114,-0.927 -0.591,-0.961 -0.447,-0.032 -0.553,0.43 -0.742,0.69 -0.177,-0.542 -0.675,-1.406 -0.37,-1.495 0.888,-0.263 1.702,-0.139 2.413,0.268 0.65,-0.397 1.416,-0.921 2.061,-0.271 l -0.671,0.606 c 0.395,0.324 0.415,0.772 0.232,1.156 -0.094,0.201 0.122,0.944 0.129,1.015 1.404,0.454 2.161,1.8 3.184,2.475 -0.433,0.284 -0.976,0.243 -1.489,0.115 0.016,-0.338 -0.339,-0.557 -0.63,-0.547 -0.175,0.005 -0.524,0.09 -0.521,0.294 0.573,0.039 0.065,0.268 -0.194,0.24 -0.142,-0.016 -0.306,-0.239 -0.288,-0.236 -1.195,-0.152 -2.266,-0.643 -3.261,-0.861 -0.008,-0.002 -0.124,-0.116 -0.176,-0.238 -1.843,0.31 -3.42,-0.1 -4.785,-0.64 -0.478,-0.188 -0.152,0.43 -0.069,0.508 0.521,0.5 1.352,0.573 1.857,1.109 0.254,0.269 -0.558,0.317 -0.576,0.573 0.305,0.07 1.234,0.168 1.453,0.33 0.359,0.265 -0.315,0.375 -0.44,0.358 l -4.536,-0.444 c -0.542,-0.377 -1.323,-0.598 -2.046,-0.446 -1.939,-0.33 -3.963,-0.275 -5.742,-0.77 -0.547,-0.153 -1.105,-0.376 -1.561,-0.704 -0.092,-0.065 -0.181,-0.487 -0.233,-0.626 -0.305,-0.045 -0.732,-0.02 -0.821,-0.307 -0.063,-0.196 0.078,-0.317 0.491,-0.232 0.96,0.196 2.24,0.146 3.416,0.288 0.379,0.046 0.748,-0.531 1.133,-0.69 0.252,-0.104 1.006,-0.141 1.379,-0.186 -1.065,-0.721 -2.341,-0.811 -3.429,-1.185 0.035,-0.562 -0.457,-0.694 -0.763,-0.76 -1.829,-0.397 -3.712,-0.276 -5.411,-0.847 -0.509,-0.171 -0.979,-0.578 -1.56,-0.546 -0.27,0.016 0.215,0.672 0.209,0.981 -0.005,0.291 -0.414,1.11 -0.616,1.256 -0.327,0.233 -0.758,0.368 -1.189,0.701 -0.842,-0.615 -1.505,-1.349 -2.437,-1.589 -0.113,-0.029 -0.239,-0.643 -0.269,-0.728 -0.841,0.206 -1.633,-0.126 -2.272,-0.466 -0.279,-0.148 -0.849,-0.338 -1.11,0.088 0.382,0.641 1.324,0.562 1.728,1.167 -0.536,0.345 -1.233,0.51 -1.335,1.054 -0.055,0.294 0.56,0.347 0.655,0.761 -0.555,0.126 -1.206,0.373 -1.646,0.127 -0.128,-0.072 -0.191,-0.626 -0.296,-0.693 -0.281,-0.18 -0.709,-0.269 -1.055,-0.139 -0.268,0.101 -0.462,0.472 -0.691,0.478 -0.682,0.022 -0.978,-0.542 -1.308,-0.955 -0.588,0.196 -1.261,0.549 -1.555,0.893 0.332,0.816 0.215,1.745 0.866,2.187 0.179,0.122 0.445,0.355 0.673,0.197 0.125,-0.088 0.47,-0.396 0.49,-0.399 1.3,-0.215 2.334,0.251 2.909,0.84 2.186,0.494 4.215,0.986 5.992,1.63 0.368,0.133 0.02,0.511 -0.127,0.927 -1.429,-0.382 -3.279,-0.198 -4.635,0.082 -0.753,0.156 -1.507,-0.018 -2.264,-0.118 -0.246,-0.033 0.06,0.578 0.263,0.74 0.433,0.344 1.104,0.774 1.08,1.389 -0.015,0.394 -0.285,0.941 0.178,1.242 0.36,0.234 0.882,0.519 1.381,0.68"
         style="fill:#000000;fill-opacity:1;fill-rule:nonzero;stroke:none"
         id="path38872" />
    </g>
  </g>
</svg>
